<?xml version="1.0" encoding="UTF-8" standalone="no"?>
<!DOCTYPE svg PUBLIC "-//W3C//DTD SVG 1.1//EN"
 "http://www.w3.org/Graphics/SVG/1.1/DTD/svg11.dtd">
<!-- Generated by graphviz version 2.43.0 (0)
 -->
<!-- Title: application_state_diagram Pages: 1 -->
<svg width="639pt" height="339pt"
 viewBox="0.00 0.00 638.85 339.00" xmlns="http://www.w3.org/2000/svg" xmlns:xlink="http://www.w3.org/1999/xlink">
<g id="graph0" class="graph" transform="scale(1 1) rotate(0) translate(4 335)">
<title>application_state_diagram</title>
<g id="a_graph0"><a xlink:href="index.html" xlink:title="TO&#45;DO List API" target="_parent">
<polygon fill="white" stroke="transparent" points="-4,4 -4,-335 634.85,-335 634.85,4 -4,4"/>
<text text-anchor="middle" x="315.43" y="-315.8" font-family="Helvetica,sans-Serif" font-size="14.00">TO&#45;DO List API</text>
</a>
</g>
<!-- collection -->
<g id="node1" class="node">
<title>collection</title>
<g id="a_node1"><a xlink:href="docs/semantic.collection.html" xlink:title="&lt;TABLE&gt;" target="_parent">
<polygon fill="lightgray" stroke="black" stroke-width="2" points="324.35,-298 243.35,-298 243.35,-256 324.35,-256 324.35,-298"/>
<text text-anchor="start" x="249.85" y="-280.8" font-family="Times,serif" font-size="14.00">collection</text>
<text text-anchor="start" x="262.85" y="-265.8" font-family="Times,serif" font-size="14.00">(todo)</text>
</a>
</g>
</g>
<!-- collection&#45;&gt;collection -->
<g id="edge1" class="edge">
<title>collection&#45;&gt;collection</title>
<path fill="none" stroke="black" d="M324.59,-293.64C334.75,-292.48 342.35,-286.93 342.35,-277 342.35,-270.64 339.23,-266.07 334.32,-263.31"/>
<polygon fill="black" stroke="black" points="335.17,-259.91 324.59,-260.36 333.14,-266.61 335.17,-259.91"/>
<g id="a_edge1_0"><a xlink:href="docs/unsafe.doCreate.html" xlink:title="&lt;TABLE&gt;">
<text text-anchor="start" x="346.35" y="-293.6" font-family="Times,serif" font-size="13.00">doCreate (unsafe)</text>
</a>
</g>
<g id="a_edge1_1"><a xlink:href="docs/safe.goFilter.html" xlink:title="&lt;TABLE&gt;">
<text text-anchor="start" x="346.35" y="-273.6" font-family="Times,serif" font-size="13.00">goFilter (safe)</text>
</a>
</g>
<g id="a_edge1_2"><a xlink:href="docs/safe.goList.html" xlink:title="&lt;TABLE&gt;">
<text text-anchor="start" x="346.35" y="-253.6" font-family="Times,serif" font-size="13.00">goList (safe)</text>
</a>
</g>
</g>
<!-- item -->
<g id="node2" class="node">
<title>item</title>
<g id="a_node2"><a xlink:href="docs/semantic.item.html" xlink:title="&lt;TABLE&gt;" target="_parent">
<polygon fill="lightgray" stroke="black" stroke-width="2" points="155.35,-128 100.35,-128 100.35,-86 155.35,-86 155.35,-128"/>
<text text-anchor="start" x="111.85" y="-110.8" font-family="Times,serif" font-size="14.00">item</text>
<text text-anchor="start" x="106.85" y="-95.8" font-family="Times,serif" font-size="14.00">(todo)</text>
</a>
</g>
</g>
<!-- collection&#45;&gt;item -->
<g id="edge3" class="edge">
<title>collection&#45;&gt;item</title>
<g id="a_edge3"><a xlink:href="docs/safe.goItem.html" xlink:title="goItem, item read (safe)" target="_parent">
<path fill="none" stroke="black" d="M243.08,-274.82C175.59,-271.9 45.21,-261.92 16.85,-228 -6.53,-200.04 -4.34,-175.65 16.85,-146 33.4,-122.84 64.96,-113.64 90.21,-110.06"/>
<polygon fill="black" stroke="black" points="90.71,-113.53 100.23,-108.88 89.89,-106.58 90.71,-113.53"/>
</a>
</g>
<g id="a_edge3&#45;label"><a xlink:href="docs/safe.goItem.html" xlink:title="goItem, item read (safe)" target="_parent">
<text text-anchor="start" x="16.85" y="-183.6" font-family="Times,serif" font-size="13.00">goItem, item read (safe)</text>
</a>
</g>
</g>
<!-- home -->
<g id="node3" class="node">
<title>home</title>
<g id="a_node3"><a xlink:href="docs/semantic.home.html" xlink:title="home" target="_parent">
<polygon fill="lightgray" stroke="black" stroke-width="2" points="397.85,-36 341.85,-36 341.85,0 397.85,0 397.85,-36"/>
<text text-anchor="middle" x="369.85" y="-14.3" font-family="Times,serif" font-size="14.00">home</text>
</a>
</g>
</g>
<!-- collection&#45;&gt;home -->
<g id="edge2" class="edge">
<title>collection&#45;&gt;home</title>
<g id="a_edge2"><a xlink:href="docs/safe.goHome.html" xlink:title="goHome, self (safe)" target="_parent">
<path fill="none" stroke="black" d="M324.6,-257.81C336.69,-250.35 348.62,-240.48 355.85,-228 389.21,-170.39 382.02,-88.3 375.21,-46.2"/>
<polygon fill="black" stroke="black" points="378.63,-45.41 373.47,-36.16 371.73,-46.61 378.63,-45.41"/>
</a>
</g>
<g id="a_edge2&#45;label"><a xlink:href="docs/safe.goHome.html" xlink:title="goHome, self (safe)" target="_parent">
<text text-anchor="start" x="381.85" y="-103.6" font-family="Times,serif" font-size="13.00">goHome, self (safe)</text>
</a>
</g>
</g>
<!-- item&#45;&gt;collection -->
<g id="edge6" class="edge">
<title>item&#45;&gt;collection</title>
<path fill="none" stroke="black" d="M155.35,-124.5C163.27,-130.41 171.26,-137.69 176.85,-146 197.98,-177.4 176.57,-198.16 199.85,-228 208.83,-239.51 221.39,-248.74 234.07,-255.9"/>
<polygon fill="black" stroke="black" points="232.8,-259.19 243.28,-260.76 236.07,-253 232.8,-259.19"/>
<g id="a_edge6_3"><a xlink:href="docs/idempotent.doDue.html" xlink:title="&lt;TABLE&gt;">
<text text-anchor="start" x="203.85" y="-213.6" font-family="Times,serif" font-size="13.00">doDue (idempotent)</text>
</a>
</g>
<g id="a_edge6_4"><a xlink:href="docs/idempotent.doStatus.html" xlink:title="&lt;TABLE&gt;">
<text text-anchor="start" x="203.85" y="-193.6" font-family="Times,serif" font-size="13.00">doStatus (idempotent)</text>
</a>
</g>
<g id="a_edge6_5"><a xlink:href="docs/safe.goFilter.html" xlink:title="&lt;TABLE&gt;">
<text text-anchor="start" x="203.85" y="-173.6" font-family="Times,serif" font-size="13.00">goFilter (safe)</text>
</a>
</g>
<g id="a_edge6_6"><a xlink:href="docs/safe.goList.html" xlink:title="&lt;TABLE&gt;">
<text text-anchor="start" x="203.85" y="-153.6" font-family="Times,serif" font-size="13.00">goList (safe)</text>
</a>
</g>
</g>
<!-- item&#45;&gt;item -->
<g id="edge8" class="edge">
<title>item&#45;&gt;item</title>
<g id="a_edge8"><a xlink:href="docs/safe.goItem.html" xlink:title="goItem, item read (safe)" target="_parent">
<path fill="none" stroke="black" d="M155.39,-115.62C165.29,-115.8 173.35,-112.93 173.35,-107 173.35,-103.29 170.2,-100.78 165.42,-99.46"/>
<polygon fill="black" stroke="black" points="165.71,-95.98 155.39,-98.38 164.96,-102.94 165.71,-95.98"/>
</a>
</g>
<g id="a_edge8&#45;label"><a xlink:href="docs/safe.goItem.html" xlink:title="goItem, item read (safe)" target="_parent">
<text text-anchor="start" x="173.35" y="-103.6" font-family="Times,serif" font-size="13.00">goItem, item read (safe)</text>
</a>
</g>
</g>
<!-- item&#45;&gt;home -->
<g id="edge7" class="edge">
<title>item&#45;&gt;home</title>
<g id="a_edge7"><a xlink:href="docs/safe.goHome.html" xlink:title="goHome, self (safe)" target="_parent">
<path fill="none" stroke="black" d="M155.47,-89.36C175.11,-78.1 202.4,-63.6 227.85,-54 262.02,-41.11 302.62,-31.66 331.64,-25.85"/>
<polygon fill="black" stroke="black" points="332.63,-29.22 341.77,-23.87 331.29,-22.35 332.63,-29.22"/>
</a>
</g>
<g id="a_edge7&#45;label"><a xlink:href="docs/safe.goHome.html" xlink:title="goHome, self (safe)" target="_parent">
<text text-anchor="start" x="227.85" y="-57.6" font-family="Times,serif" font-size="13.00">goHome, self (safe)</text>
</a>
</g>
</g>
<!-- home&#45;&gt;collection -->
<g id="edge4" class="edge">
<title>home&#45;&gt;collection</title>
<g id="a_edge4"><a xlink:href="docs/safe.goList.html" xlink:title="goList, list (safe)" target="_parent">
<path fill="none" stroke="black" d="M397.87,-23.17C431.6,-29.86 486.82,-46.52 511.85,-86 521.84,-101.77 520.1,-111.25 511.85,-128 476.94,-198.89 390.16,-240.36 334.29,-260.57"/>
<polygon fill="black" stroke="black" points="332.85,-257.37 324.58,-263.98 335.17,-263.97 332.85,-257.37"/>
</a>
</g>
<g id="a_edge4&#45;label"><a xlink:href="docs/safe.goList.html" xlink:title="goList, list (safe)" target="_parent">
<text text-anchor="start" x="517.85" y="-103.6" font-family="Times,serif" font-size="13.00">goList, list (safe)</text>
</a>
</g>
</g>
<!-- home&#45;&gt;home -->
<g id="edge5" class="edge">
<title>home&#45;&gt;home</title>
<g id="a_edge5"><a xlink:href="docs/safe.goHome.html" xlink:title="goHome, self (safe)" target="_parent">
<path fill="none" stroke="black" d="M398.15,-25.87C407.94,-25.96 415.85,-23.33 415.85,-18 415.85,-14.75 412.91,-12.51 408.4,-11.27"/>
<polygon fill="black" stroke="black" points="408.48,-7.76 398.15,-10.13 407.7,-14.71 408.48,-7.76"/>
</a>
</g>
<g id="a_edge5&#45;label"><a xlink:href="docs/safe.goHome.html" xlink:title="goHome, self (safe)" target="_parent">
<text text-anchor="start" x="415.85" y="-14.6" font-family="Times,serif" font-size="13.00">goHome, self (safe)</text>
</a>
</g>
</g>
</g>
</svg>
