<?xml version="1.0" encoding="UTF-8" standalone="no"?>
<!DOCTYPE svg PUBLIC "-//W3C//DTD SVG 1.1//EN"
 "http://www.w3.org/Graphics/SVG/1.1/DTD/svg11.dtd">
<!-- Generated by graphviz version 2.43.0 (0)
 -->
<!-- Title: application_state_diagram Pages: 1 -->
<svg width="665pt" height="319pt"
 viewBox="0.00 0.00 665.00 319.00" xmlns="http://www.w3.org/2000/svg" xmlns:xlink="http://www.w3.org/1999/xlink">
<g id="graph0" class="graph" transform="scale(1 1) rotate(0) translate(4 315)">
<title>application_state_diagram</title>
<g id="a_graph0"><a xlink:href="index.html" xlink:title="TO&#45;DO List API" target="_parent">
<polygon fill="white" stroke="transparent" points="-4,4 -4,-315 661,-315 661,4 -4,4"/>
<text text-anchor="middle" x="328.5" y="-295.8" font-family="Helvetica,sans-Serif" font-size="14.00">TO&#45;DO List API</text>
</a>
</g>
<!-- collection -->
<g id="node1" class="node">
<title>collection</title>
<g id="a_node1"><a xlink:href="docs/semantic.collection.html" xlink:title="&lt;TABLE&gt;" target="_parent">
<polygon fill="lightgray" stroke="black" stroke-width="2" points="334.5,-278 253.5,-278 253.5,-236 334.5,-236 334.5,-278"/>
<text text-anchor="start" x="260" y="-260.8" font-family="Times,serif" font-size="14.00">collection</text>
<text text-anchor="start" x="273" y="-245.8" font-family="Times,serif" font-size="14.00">(todo)</text>
</a>
</g>
</g>
<!-- collection&#45;&gt;collection -->
<g id="edge1" class="edge">
<title>collection&#45;&gt;collection</title>
<path fill="none" stroke="black" d="M334.73,-271.79C344.9,-270.76 352.5,-265.83 352.5,-257 352.5,-251.34 349.38,-247.29 344.47,-244.83"/>
<polygon fill="black" stroke="black" points="345.3,-241.43 334.73,-242.21 343.48,-248.19 345.3,-241.43"/>
<g id="a_edge1_0"><a xlink:href="docs/unsafe.doCreate.html" xlink:title="&lt;TABLE&gt;">
<text text-anchor="start" x="356.5" y="-273.6" font-family="Times,serif" font-size="13.00">doCreate (unsafe)</text>
</a>
</g>
<g id="a_edge1_1"><a xlink:href="docs/safe.goFilter.html" xlink:title="&lt;TABLE&gt;">
<text text-anchor="start" x="356.5" y="-253.6" font-family="Times,serif" font-size="13.00">goFilter (safe)</text>
</a>
</g>
<g id="a_edge1_2"><a xlink:href="docs/safe.goList.html" xlink:title="&lt;TABLE&gt;">
<text text-anchor="start" x="356.5" y="-233.6" font-family="Times,serif" font-size="13.00">goList (safe)</text>
</a>
</g>
</g>
<!-- item -->
<g id="node2" class="node">
<title>item</title>
<g id="a_node2"><a xlink:href="docs/semantic.item.html" xlink:title="&lt;TABLE&gt;" target="_parent">
<polygon fill="lightgray" stroke="black" stroke-width="2" points="179.5,-128 124.5,-128 124.5,-86 179.5,-86 179.5,-128"/>
<text text-anchor="start" x="136" y="-110.8" font-family="Times,serif" font-size="14.00">item</text>
<text text-anchor="start" x="131" y="-95.8" font-family="Times,serif" font-size="14.00">(todo)</text>
</a>
</g>
</g>
<!-- collection&#45;&gt;item -->
<g id="edge3" class="edge">
<title>collection&#45;&gt;item</title>
<g id="a_edge3"><a xlink:href="docs/safe.goItem.html" xlink:title="goItem, item read (safe)" target="_parent">
<path fill="none" stroke="black" d="M253.37,-255.23C183.05,-252.95 43.28,-243.89 13,-208 -4.77,-186.94 -3.72,-167.9 13,-146 25.28,-129.91 77.55,-118.98 114.37,-113.12"/>
<polygon fill="black" stroke="black" points="114.94,-116.57 124.3,-111.59 113.88,-109.65 114.94,-116.57"/>
</a>
</g>
<g id="a_edge3&#45;label"><a xlink:href="docs/safe.goItem.html" xlink:title="goItem, item read (safe)" target="_parent">
<text text-anchor="start" x="13" y="-173.6" font-family="Times,serif" font-size="13.00">goItem, item read (safe)</text>
</a>
</g>
</g>
<!-- home -->
<g id="node3" class="node">
<title>home</title>
<g id="a_node3"><a xlink:href="docs/semantic.home.html" xlink:title="home" target="_parent">
<polygon fill="lightgray" stroke="black" stroke-width="2" points="422,-36 366,-36 366,0 422,0 422,-36"/>
<text text-anchor="middle" x="394" y="-14.3" font-family="Times,serif" font-size="14.00">home</text>
</a>
</g>
</g>
<!-- collection&#45;&gt;home -->
<g id="edge2" class="edge">
<title>collection&#45;&gt;home</title>
<g id="a_edge2"><a xlink:href="docs/safe.goHome.html" xlink:title="goHome, self (safe)" target="_parent">
<path fill="none" stroke="black" d="M334.8,-243.05C351.63,-235.55 369.61,-224.29 380,-208 411.78,-158.18 405.86,-85.23 399.49,-46.13"/>
<polygon fill="black" stroke="black" points="402.9,-45.29 397.72,-36.05 396,-46.51 402.9,-45.29"/>
</a>
</g>
<g id="a_edge2&#45;label"><a xlink:href="docs/safe.goHome.html" xlink:title="goHome, self (safe)" target="_parent">
<text text-anchor="start" x="405" y="-103.6" font-family="Times,serif" font-size="13.00">goHome, self (safe)</text>
</a>
</g>
</g>
<!-- item&#45;&gt;collection -->
<g id="edge6" class="edge">
<title>item&#45;&gt;collection</title>
<path fill="none" stroke="black" d="M163.91,-128.22C167.04,-133.89 170.3,-140.11 173,-146 185.25,-172.71 176.28,-186.2 196,-208 208.87,-222.23 226.88,-232.71 243.97,-240.18"/>
<polygon fill="black" stroke="black" points="242.74,-243.46 253.32,-244.03 245.41,-236.99 242.74,-243.46"/>
<g id="a_edge6_3"><a xlink:href="docs/idempotent.doCompleted.html" xlink:title="&lt;TABLE&gt;">
<text text-anchor="start" x="200" y="-193.6" font-family="Times,serif" font-size="13.00">doCompleted (idempotent)</text>
</a>
</g>
<g id="a_edge6_4"><a xlink:href="docs/safe.goFilter.html" xlink:title="&lt;TABLE&gt;">
<text text-anchor="start" x="200" y="-173.6" font-family="Times,serif" font-size="13.00">goFilter (safe)</text>
</a>
</g>
<g id="a_edge6_5"><a xlink:href="docs/safe.goList.html" xlink:title="&lt;TABLE&gt;">
<text text-anchor="start" x="200" y="-153.6" font-family="Times,serif" font-size="13.00">goList (safe)</text>
</a>
</g>
</g>
<!-- item&#45;&gt;item -->
<g id="edge8" class="edge">
<title>item&#45;&gt;item</title>
<g id="a_edge8"><a xlink:href="docs/safe.goItem.html" xlink:title="goItem, item read (safe)" target="_parent">
<path fill="none" stroke="black" d="M179.54,-115.62C189.43,-115.8 197.5,-112.93 197.5,-107 197.5,-103.29 194.35,-100.78 189.57,-99.46"/>
<polygon fill="black" stroke="black" points="189.86,-95.98 179.54,-98.38 189.11,-102.94 189.86,-95.98"/>
</a>
</g>
<g id="a_edge8&#45;label"><a xlink:href="docs/safe.goItem.html" xlink:title="goItem, item read (safe)" target="_parent">
<text text-anchor="start" x="197.5" y="-103.6" font-family="Times,serif" font-size="13.00">goItem, item read (safe)</text>
</a>
</g>
</g>
<!-- item&#45;&gt;home -->
<g id="edge7" class="edge">
<title>item&#45;&gt;home</title>
<g id="a_edge7"><a xlink:href="docs/safe.goHome.html" xlink:title="goHome, self (safe)" target="_parent">
<path fill="none" stroke="black" d="M179.62,-89.36C199.25,-78.1 226.55,-63.6 252,-54 286.17,-41.11 326.77,-31.66 355.79,-25.85"/>
<polygon fill="black" stroke="black" points="356.77,-29.22 365.92,-23.87 355.44,-22.35 356.77,-29.22"/>
</a>
</g>
<g id="a_edge7&#45;label"><a xlink:href="docs/safe.goHome.html" xlink:title="goHome, self (safe)" target="_parent">
<text text-anchor="start" x="252" y="-57.6" font-family="Times,serif" font-size="13.00">goHome, self (safe)</text>
</a>
</g>
</g>
<!-- home&#45;&gt;collection -->
<g id="edge4" class="edge">
<title>home&#45;&gt;collection</title>
<g id="a_edge4"><a xlink:href="docs/safe.goList.html" xlink:title="goList, list (safe)" target="_parent">
<path fill="none" stroke="black" d="M422.02,-23.17C455.75,-29.86 510.97,-46.52 536,-86 545.99,-101.77 545.13,-111.72 536,-128 496.54,-198.34 403.07,-231.67 344.52,-246.15"/>
<polygon fill="black" stroke="black" points="343.65,-242.76 334.73,-248.47 345.27,-249.57 343.65,-242.76"/>
</a>
</g>
<g id="a_edge4&#45;label"><a xlink:href="docs/safe.goList.html" xlink:title="goList, list (safe)" target="_parent">
<text text-anchor="start" x="544" y="-103.6" font-family="Times,serif" font-size="13.00">goList, list (safe)</text>
</a>
</g>
</g>
<!-- home&#45;&gt;home -->
<g id="edge5" class="edge">
<title>home&#45;&gt;home</title>
<g id="a_edge5"><a xlink:href="docs/safe.goHome.html" xlink:title="goHome, self (safe)" target="_parent">
<path fill="none" stroke="black" d="M422.3,-25.87C432.09,-25.96 440,-23.33 440,-18 440,-14.75 437.06,-12.51 432.55,-11.27"/>
<polygon fill="black" stroke="black" points="432.62,-7.76 422.3,-10.13 431.85,-14.71 432.62,-7.76"/>
</a>
</g>
<g id="a_edge5&#45;label"><a xlink:href="docs/safe.goHome.html" xlink:title="goHome, self (safe)" target="_parent">
<text text-anchor="start" x="440" y="-14.6" font-family="Times,serif" font-size="13.00">goHome, self (safe)</text>
</a>
</g>
</g>
</g>
</svg>
