<?xml version="1.0" encoding="UTF-8" standalone="no"?>
<!DOCTYPE svg PUBLIC "-//W3C//DTD SVG 1.1//EN"
 "http://www.w3.org/Graphics/SVG/1.1/DTD/svg11.dtd">
<!-- Generated by graphviz version 2.43.0 (0)
 -->
<!-- Title: application_state_diagram Pages: 1 -->
<svg width="445pt" height="319pt"
 viewBox="0.00 0.00 445.37 319.00" xmlns="http://www.w3.org/2000/svg" xmlns:xlink="http://www.w3.org/1999/xlink">
<g id="graph0" class="graph" transform="scale(1 1) rotate(0) translate(4 315)">
<title>application_state_diagram</title>
<g id="a_graph0"><a xlink:href="index.html" xlink:title="Company API at BigCo, Inc." target="_parent">
<polygon fill="white" stroke="transparent" points="-4,4 -4,-315 441.37,-315 441.37,4 -4,4"/>
<text text-anchor="middle" x="218.68" y="-295.8" font-family="Helvetica,sans-Serif" font-size="14.00">Company API at BigCo, Inc.</text>
</a>
</g>
<!-- item -->
<g id="node1" class="node">
<title>item</title>
<g id="a_node1"><a xlink:href="docs/semantic.item.html" xlink:title="&lt;TABLE&gt;" target="_parent">
<polygon fill="lightgray" stroke="black" stroke-width="2" points="226.87,-278 171.87,-278 171.87,-236 226.87,-236 226.87,-278"/>
<text text-anchor="start" x="183.37" y="-260.8" font-family="Times,serif" font-size="14.00">item</text>
<text text-anchor="start" x="178.37" y="-245.8" font-family="Times,serif" font-size="14.00">(item)</text>
</a>
</g>
</g>
<!-- item&#45;&gt;item -->
<g id="edge4" class="edge">
<title>item&#45;&gt;item</title>
<path fill="none" stroke="black" d="M226.91,-271.99C236.8,-272.31 244.87,-267.31 244.87,-257 244.87,-250.55 241.72,-246.19 236.94,-243.9"/>
<polygon fill="black" stroke="black" points="237.38,-240.42 226.91,-242.01 236.09,-247.3 237.38,-240.42"/>
<g id="a_edge4_0"><a xlink:href="docs/idempotent.doStatus.html" xlink:title="&lt;TABLE&gt;">
<text text-anchor="start" x="248.87" y="-273.6" font-family="Times,serif" font-size="13.00">doStatus (idempotent)</text>
</a>
</g>
<g id="a_edge4_1"><a xlink:href="docs/idempotent.doUpdate.html" xlink:title="&lt;TABLE&gt;">
<text text-anchor="start" x="248.87" y="-253.6" font-family="Times,serif" font-size="13.00">doUpdate (idempotent)</text>
</a>
</g>
<g id="a_edge4_2"><a xlink:href="docs/safe.gotoItem.html" xlink:title="&lt;TABLE&gt;">
<text text-anchor="start" x="248.87" y="-233.6" font-family="Times,serif" font-size="13.00">gotoItem (safe)</text>
</a>
</g>
</g>
<!-- list -->
<g id="node2" class="node">
<title>list</title>
<g id="a_node2"><a xlink:href="docs/semantic.list.html" xlink:title="&lt;TABLE&gt;" target="_parent">
<polygon fill="lightgray" stroke="black" stroke-width="2" points="147.87,-128 92.87,-128 92.87,-86 147.87,-86 147.87,-128"/>
<text text-anchor="start" x="109.37" y="-110.8" font-family="Times,serif" font-size="14.00">list</text>
<text text-anchor="start" x="99.37" y="-95.8" font-family="Times,serif" font-size="14.00">(item)</text>
</a>
</g>
</g>
<!-- item&#45;&gt;list -->
<g id="edge5" class="edge">
<title>item&#45;&gt;list</title>
<path fill="none" stroke="black" d="M171.63,-253C124.45,-247.26 31.78,-233.03 12.37,-208 -4.52,-186.23 -3.56,-168.49 12.37,-146 28.15,-123.72 58.09,-114.41 82.45,-110.56"/>
<polygon fill="black" stroke="black" points="83.04,-114.01 92.5,-109.23 82.12,-107.08 83.04,-114.01"/>
<g id="a_edge5_3"><a xlink:href="docs/idempotent.doRemove.html" xlink:title="&lt;TABLE&gt;">
<text text-anchor="start" x="16.87" y="-193.6" font-family="Times,serif" font-size="13.00">doRemove (idempotent)</text>
</a>
</g>
<g id="a_edge5_4"><a xlink:href="docs/safe.gotoFilter.html" xlink:title="&lt;TABLE&gt;">
<text text-anchor="start" x="16.87" y="-173.6" font-family="Times,serif" font-size="13.00">gotoFilter (safe)</text>
</a>
</g>
<g id="a_edge5_5"><a xlink:href="docs/safe.gotoList.html" xlink:title="&lt;TABLE&gt;">
<text text-anchor="start" x="16.87" y="-153.6" font-family="Times,serif" font-size="13.00">gotoList (safe)</text>
</a>
</g>
</g>
<!-- home -->
<g id="node3" class="node">
<title>home</title>
<g id="a_node3"><a xlink:href="docs/semantic.home.html" xlink:title="home" target="_parent">
<polygon fill="lightgray" stroke="black" stroke-width="2" points="257.37,-36 201.37,-36 201.37,0 257.37,0 257.37,-36"/>
<text text-anchor="middle" x="229.37" y="-14.3" font-family="Times,serif" font-size="14.00">home</text>
</a>
</g>
</g>
<!-- item&#45;&gt;home -->
<g id="edge3" class="edge">
<title>item&#45;&gt;home</title>
<g id="a_edge3"><a xlink:href="docs/safe.gotoHome.html" xlink:title="gotoHome (safe)" target="_parent">
<path fill="none" stroke="black" d="M226.9,-254.34C257.04,-250.88 304.05,-240.29 326.37,-208 339.4,-189.15 322.11,-60.31 317.37,-54 305.44,-38.15 285.21,-29.46 267.15,-24.71"/>
<polygon fill="black" stroke="black" points="267.94,-21.3 257.41,-22.45 266.36,-28.12 267.94,-21.3"/>
</a>
</g>
<g id="a_edge3&#45;label"><a xlink:href="docs/safe.gotoHome.html" xlink:title="gotoHome (safe)" target="_parent">
<text text-anchor="start" x="328.37" y="-103.6" font-family="Times,serif" font-size="13.00">gotoHome (safe)</text>
</a>
</g>
</g>
<!-- list&#45;&gt;item -->
<g id="edge7" class="edge">
<title>list&#45;&gt;item</title>
<path fill="none" stroke="black" d="M148.03,-120.54C158.75,-126.74 170.15,-135.23 177.37,-146 193.25,-169.72 198.16,-202.33 199.45,-225.88"/>
<polygon fill="black" stroke="black" points="195.96,-226.13 199.82,-236 202.95,-225.88 195.96,-226.13"/>
<g id="a_edge7_6"><a xlink:href="docs/unsafe.doCreate.html" xlink:title="&lt;TABLE&gt;">
<text text-anchor="start" x="202.37" y="-183.6" font-family="Times,serif" font-size="13.00">doCreate (unsafe)</text>
</a>
</g>
<g id="a_edge7_7"><a xlink:href="docs/safe.gotoItem.html" xlink:title="&lt;TABLE&gt;">
<text text-anchor="start" x="202.37" y="-163.6" font-family="Times,serif" font-size="13.00">gotoItem (safe)</text>
</a>
</g>
</g>
<!-- list&#45;&gt;list -->
<g id="edge8" class="edge">
<title>list&#45;&gt;list</title>
<path fill="none" stroke="black" d="M147.91,-115.62C157.8,-115.8 165.87,-112.93 165.87,-107 165.87,-103.29 162.72,-100.78 157.94,-99.46"/>
<polygon fill="black" stroke="black" points="158.23,-95.98 147.91,-98.38 157.48,-102.94 158.23,-95.98"/>
<g id="a_edge8_8"><a xlink:href="docs/safe.gotoFilter.html" xlink:title="&lt;TABLE&gt;">
<text text-anchor="start" x="170.37" y="-113.6" font-family="Times,serif" font-size="13.00">gotoFilter (safe)</text>
</a>
</g>
<g id="a_edge8_9"><a xlink:href="docs/safe.gotoList.html" xlink:title="&lt;TABLE&gt;">
<text text-anchor="start" x="170.37" y="-93.6" font-family="Times,serif" font-size="13.00">gotoList (safe)</text>
</a>
</g>
</g>
<!-- list&#45;&gt;home -->
<g id="edge6" class="edge">
<title>list&#45;&gt;home</title>
<g id="a_edge6"><a xlink:href="docs/safe.gotoHome.html" xlink:title="gotoHome (safe)" target="_parent">
<path fill="none" stroke="black" d="M99.87,-85.68C92.2,-75.6 86.95,-63.58 94.37,-54 106.17,-38.75 155.54,-28.93 191.17,-23.68"/>
<polygon fill="black" stroke="black" points="191.85,-27.12 201.27,-22.26 190.88,-20.19 191.85,-27.12"/>
</a>
</g>
<g id="a_edge6&#45;label"><a xlink:href="docs/safe.gotoHome.html" xlink:title="gotoHome (safe)" target="_parent">
<text text-anchor="start" x="94.37" y="-57.6" font-family="Times,serif" font-size="13.00">gotoHome (safe)</text>
</a>
</g>
</g>
<!-- home&#45;&gt;list -->
<g id="edge2" class="edge">
<title>home&#45;&gt;list</title>
<g id="a_edge2"><a xlink:href="docs/safe.gotoList.html" xlink:title="gotoList (safe)" target="_parent">
<path fill="none" stroke="black" d="M225.04,-36.26C221.69,-46.58 216.11,-59.34 207.37,-68 193.76,-81.47 174.58,-90.54 157.69,-96.43"/>
<polygon fill="black" stroke="black" points="156.51,-93.14 148.07,-99.54 158.66,-99.8 156.51,-93.14"/>
</a>
</g>
<g id="a_edge2&#45;label"><a xlink:href="docs/safe.gotoList.html" xlink:title="gotoList (safe)" target="_parent">
<text text-anchor="start" x="217.37" y="-57.6" font-family="Times,serif" font-size="13.00">gotoList (safe)</text>
</a>
</g>
</g>
<!-- home&#45;&gt;home -->
<g id="edge1" class="edge">
<title>home&#45;&gt;home</title>
<g id="a_edge1"><a xlink:href="docs/safe.gotoHome.html" xlink:title="gotoHome (safe)" target="_parent">
<path fill="none" stroke="black" d="M257.67,-25.87C267.46,-25.96 275.37,-23.33 275.37,-18 275.37,-14.75 272.43,-12.51 267.92,-11.27"/>
<polygon fill="black" stroke="black" points="267.99,-7.76 257.67,-10.13 267.22,-14.71 267.99,-7.76"/>
</a>
</g>
<g id="a_edge1&#45;label"><a xlink:href="docs/safe.gotoHome.html" xlink:title="gotoHome (safe)" target="_parent">
<text text-anchor="start" x="275.37" y="-14.6" font-family="Times,serif" font-size="13.00">gotoHome (safe)</text>
</a>
</g>
</g>
</g>
</svg>
